<svg xmlns="http://www.w3.org/2000/svg" viewBox="0 0 115.7 116">
<!-- SVG created with Arrow, by QuiverAI (https://quiver.ai) -->
  <style type="text/css">.cls-0 {fill:#04A061;}
.cls-1 {fill:#FFFFFF;}</style>
  <path class="cls-0" d="m57.8 5.5c32.2 0 53.1 24.8 53.1 52.5 0 29-22.5 52.5-52.9 52.5-29.8 0-53.3-23.5-53.3-52.2s23.1-52.8 53.1-52.8z"/>
  <path class="cls-1" d="m62.1 19.8c-1.1 0-2-0.1-3.1-0.1-22.3 0-39.4 16.5-39.4 36.4 0 8.9 2.8 16.3 9 23.7l32.5-30.8c-9.5 3.6-16.1 9.4-24.4 16.5-0.7-3.4-0.8-8.6 1.3-13.6 6.3-13.6 23.9-18.3 40-17.5 0.2 9.6-2.6 34.6-20.9 38.2-3 0.8-5.9 1.3-10.8 1l-9.2 15.2c4.1 2.7 11.2 5.1 20 5.2 20.7 0 38.8-15.6 38.8-37.7 0.1-13.9-10.2-26.7-18.9-31.8-5.3-3.3-9.8-4.5-14.9-4.7z"/>
</svg>